<svg xmlns="http://www.w3.org/2000/svg" width="1606" height="620" viewBox="0 0 1606 620">
<rect width="100%" height="100%" fill="#f8fafc" />
<rect x="110" y="78" width="1460" height="442" rx="10" fill="white" stroke="#d1d5db" stroke-width="1" />
<text x="110" y="28" font-family="monospace" font-size="20" fill="#111827">Best-Branch Lineage: mcts/000411 | val_bpb</text>
<text x="110" y="48" font-family="monospace" font-size="12" fill="#4b5563">Lower is better. Points: 63. Start 1.9604 -&gt; End 0.935200. Improvement 1.0252.</text>
<line x1="110" y1="78.00" x2="1570" y2="78.00" stroke="#e5e7eb" stroke-width="1" />
<line x1="110" y1="151.67" x2="1570" y2="151.67" stroke="#e5e7eb" stroke-width="1" />
<line x1="110" y1="225.33" x2="1570" y2="225.33" stroke="#e5e7eb" stroke-width="1" />
<line x1="110" y1="299.00" x2="1570" y2="299.00" stroke="#e5e7eb" stroke-width="1" />
<line x1="110" y1="372.67" x2="1570" y2="372.67" stroke="#e5e7eb" stroke-width="1" />
<line x1="110" y1="446.33" x2="1570" y2="446.33" stroke="#e5e7eb" stroke-width="1" />
<line x1="110" y1="520.00" x2="1570" y2="520.00" stroke="#e5e7eb" stroke-width="1" />
<line x1="110" y1="78" x2="110" y2="520" stroke="#111827" stroke-width="1.5" />
<line x1="110" y1="520" x2="1570" y2="520" stroke="#111827" stroke-width="1.5" />
<text x="98" y="82.00" text-anchor="end" font-family="monospace" font-size="12" fill="#374151">1.9604</text>
<text x="98" y="155.67" text-anchor="end" font-family="monospace" font-size="12" fill="#374151">1.7895</text>
<text x="98" y="229.33" text-anchor="end" font-family="monospace" font-size="12" fill="#374151">1.6187</text>
<text x="98" y="303.00" text-anchor="end" font-family="monospace" font-size="12" fill="#374151">1.4478</text>
<text x="98" y="376.67" text-anchor="end" font-family="monospace" font-size="12" fill="#374151">1.2769</text>
<text x="98" y="450.33" text-anchor="end" font-family="monospace" font-size="12" fill="#374151">1.1061</text>
<text x="98" y="524.00" text-anchor="end" font-family="monospace" font-size="12" fill="#374151">0.935200</text>
<line x1="110.00" y1="520" x2="110.00" y2="526" stroke="#6b7280" stroke-width="1" />
<text x="110.00" y="542.00" text-anchor="middle" font-family="monospace" font-size="11" fill="#374151">1</text>
<line x1="298.39" y1="520" x2="298.39" y2="526" stroke="#6b7280" stroke-width="1" />
<text x="298.39" y="542.00" text-anchor="middle" font-family="monospace" font-size="11" fill="#374151">9</text>
<line x1="486.77" y1="520" x2="486.77" y2="526" stroke="#6b7280" stroke-width="1" />
<text x="486.77" y="542.00" text-anchor="middle" font-family="monospace" font-size="11" fill="#374151">17</text>
<line x1="675.16" y1="520" x2="675.16" y2="526" stroke="#6b7280" stroke-width="1" />
<text x="675.16" y="542.00" text-anchor="middle" font-family="monospace" font-size="11" fill="#374151">25</text>
<line x1="863.55" y1="520" x2="863.55" y2="526" stroke="#6b7280" stroke-width="1" />
<text x="863.55" y="542.00" text-anchor="middle" font-family="monospace" font-size="11" fill="#374151">33</text>
<line x1="1051.94" y1="520" x2="1051.94" y2="526" stroke="#6b7280" stroke-width="1" />
<text x="1051.94" y="542.00" text-anchor="middle" font-family="monospace" font-size="11" fill="#374151">41</text>
<line x1="1240.32" y1="520" x2="1240.32" y2="526" stroke="#6b7280" stroke-width="1" />
<text x="1240.32" y="542.00" text-anchor="middle" font-family="monospace" font-size="11" fill="#374151">49</text>
<line x1="1428.71" y1="520" x2="1428.71" y2="526" stroke="#6b7280" stroke-width="1" />
<text x="1428.71" y="542.00" text-anchor="middle" font-family="monospace" font-size="11" fill="#374151">57</text>
<line x1="1570.00" y1="520" x2="1570.00" y2="526" stroke="#6b7280" stroke-width="1" />
<text x="1570.00" y="542.00" text-anchor="middle" font-family="monospace" font-size="11" fill="#374151">63</text>
<polyline fill="none" stroke="#2563eb" stroke-width="2.5" points="110.00,78.00 133.55,133.88 157.10,135.52 180.65,138.89 204.19,158.20 227.74,165.18 251.29,167.75 274.84,179.78 298.39,179.26 321.94,183.44 345.48,183.61 369.03,183.43 392.58,183.71 416.13,183.62 439.68,183.39 463.23,183.62 486.77,185.18 510.32,185.38 533.87,185.70 557.42,187.58 580.97,187.71 604.52,187.00 628.06,187.24 651.61,186.99 675.16,194.87 698.71,198.09 722.26,196.65 745.81,196.69 769.35,197.49 792.90,199.20 816.45,199.14 840.00,199.70 863.55,199.96 887.10,200.06 910.65,242.25 934.19,275.71 957.74,240.63 981.29,241.65 1004.84,294.55 1028.39,295.04 1051.94,295.54 1075.48,295.52 1099.03,294.55 1122.58,294.38 1146.13,295.66 1169.68,295.17 1193.23,295.73 1216.77,295.14 1240.32,295.47 1263.87,295.13 1287.42,329.33 1310.97,361.44 1334.52,393.98 1358.06,426.23 1381.61,456.62 1405.16,473.63 1428.71,484.22 1452.26,496.56 1475.81,508.90 1499.35,511.95 1522.90,515.19 1546.45,517.89 1570.00,520.00" />
<circle cx="110.00" cy="78.00" r="6.0" fill="#2563eb" stroke="white" stroke-width="1.5"><title>mcts/000002 | val_bpb=1.9604</title></circle>
<circle cx="133.55" cy="133.88" r="4.0" fill="#2563eb" stroke="white" stroke-width="1.5"><title>mcts/000010 | val_bpb=1.8308</title></circle>
<circle cx="157.10" cy="135.52" r="4.0" fill="#2563eb" stroke="white" stroke-width="1.5"><title>mcts/000013 | val_bpb=1.8270</title></circle>
<circle cx="180.65" cy="138.89" r="4.0" fill="#2563eb" stroke="white" stroke-width="1.5"><title>mcts/000020 | val_bpb=1.8192</title></circle>
<circle cx="204.19" cy="158.20" r="4.0" fill="#2563eb" stroke="white" stroke-width="1.5"><title>mcts/000024 | val_bpb=1.7744</title></circle>
<circle cx="227.74" cy="165.18" r="4.0" fill="#2563eb" stroke="white" stroke-width="1.5"><title>mcts/000028 | val_bpb=1.7582</title></circle>
<circle cx="251.29" cy="167.75" r="4.0" fill="#2563eb" stroke="white" stroke-width="1.5"><title>mcts/000032 | val_bpb=1.7522</title></circle>
<circle cx="274.84" cy="179.78" r="4.0" fill="#2563eb" stroke="white" stroke-width="1.5"><title>mcts/000036 | val_bpb=1.7243</title></circle>
<circle cx="298.39" cy="179.26" r="4.0" fill="#2563eb" stroke="white" stroke-width="1.5"><title>mcts/000043 | val_bpb=1.7255</title></circle>
<circle cx="321.94" cy="183.44" r="4.0" fill="#2563eb" stroke="white" stroke-width="1.5"><title>mcts/000050 | val_bpb=1.7158</title></circle>
<circle cx="345.48" cy="183.61" r="4.0" fill="#2563eb" stroke="white" stroke-width="1.5"><title>mcts/000051 | val_bpb=1.7154</title></circle>
<circle cx="369.03" cy="183.43" r="4.0" fill="#2563eb" stroke="white" stroke-width="1.5"><title>mcts/000058 | val_bpb=1.7158</title></circle>
<circle cx="392.58" cy="183.71" r="4.0" fill="#2563eb" stroke="white" stroke-width="1.5"><title>mcts/000070 | val_bpb=1.7152</title></circle>
<circle cx="416.13" cy="183.62" r="4.0" fill="#2563eb" stroke="white" stroke-width="1.5"><title>mcts/000074 | val_bpb=1.7154</title></circle>
<circle cx="439.68" cy="183.39" r="4.0" fill="#2563eb" stroke="white" stroke-width="1.5"><title>mcts/000076 | val_bpb=1.7160</title></circle>
<circle cx="463.23" cy="183.62" r="4.0" fill="#2563eb" stroke="white" stroke-width="1.5"><title>mcts/000097 | val_bpb=1.7154</title></circle>
<circle cx="486.77" cy="185.18" r="4.0" fill="#2563eb" stroke="white" stroke-width="1.5"><title>mcts/000103 | val_bpb=1.7118</title></circle>
<circle cx="510.32" cy="185.38" r="4.0" fill="#2563eb" stroke="white" stroke-width="1.5"><title>mcts/000108 | val_bpb=1.7113</title></circle>
<circle cx="533.87" cy="185.70" r="4.0" fill="#2563eb" stroke="white" stroke-width="1.5"><title>mcts/000112 | val_bpb=1.7106</title></circle>
<circle cx="557.42" cy="187.58" r="4.0" fill="#2563eb" stroke="white" stroke-width="1.5"><title>mcts/000117 | val_bpb=1.7062</title></circle>
<circle cx="580.97" cy="187.71" r="4.0" fill="#2563eb" stroke="white" stroke-width="1.5"><title>mcts/000121 | val_bpb=1.7059</title></circle>
<circle cx="604.52" cy="187.00" r="4.0" fill="#2563eb" stroke="white" stroke-width="1.5"><title>mcts/000126 | val_bpb=1.7076</title></circle>
<circle cx="628.06" cy="187.24" r="4.0" fill="#2563eb" stroke="white" stroke-width="1.5"><title>mcts/000133 | val_bpb=1.7070</title></circle>
<circle cx="651.61" cy="186.99" r="4.0" fill="#2563eb" stroke="white" stroke-width="1.5"><title>mcts/000137 | val_bpb=1.7076</title></circle>
<circle cx="675.16" cy="194.87" r="4.0" fill="#2563eb" stroke="white" stroke-width="1.5"><title>mcts/000156 | val_bpb=1.6893</title></circle>
<circle cx="698.71" cy="198.09" r="4.0" fill="#2563eb" stroke="white" stroke-width="1.5"><title>mcts/000163 | val_bpb=1.6818</title></circle>
<circle cx="722.26" cy="196.65" r="4.0" fill="#2563eb" stroke="white" stroke-width="1.5"><title>mcts/000168 | val_bpb=1.6852</title></circle>
<circle cx="745.81" cy="196.69" r="4.0" fill="#2563eb" stroke="white" stroke-width="1.5"><title>mcts/000175 | val_bpb=1.6851</title></circle>
<circle cx="769.35" cy="197.49" r="4.0" fill="#2563eb" stroke="white" stroke-width="1.5"><title>mcts/000177 | val_bpb=1.6833</title></circle>
<circle cx="792.90" cy="199.20" r="4.0" fill="#2563eb" stroke="white" stroke-width="1.5"><title>mcts/000185 | val_bpb=1.6793</title></circle>
<circle cx="816.45" cy="199.14" r="4.0" fill="#2563eb" stroke="white" stroke-width="1.5"><title>mcts/000188 | val_bpb=1.6794</title></circle>
<circle cx="840.00" cy="199.70" r="4.0" fill="#2563eb" stroke="white" stroke-width="1.5"><title>mcts/000199 | val_bpb=1.6781</title></circle>
<circle cx="863.55" cy="199.96" r="4.0" fill="#2563eb" stroke="white" stroke-width="1.5"><title>mcts/000203 | val_bpb=1.6775</title></circle>
<circle cx="887.10" cy="200.06" r="4.0" fill="#2563eb" stroke="white" stroke-width="1.5"><title>mcts/000208 | val_bpb=1.6773</title></circle>
<circle cx="910.65" cy="242.25" r="4.0" fill="#2563eb" stroke="white" stroke-width="1.5"><title>mcts/000222 | val_bpb=1.5794</title></circle>
<circle cx="934.19" cy="275.71" r="4.0" fill="#2563eb" stroke="white" stroke-width="1.5"><title>mcts/000226 | val_bpb=1.5018</title></circle>
<circle cx="957.74" cy="240.63" r="4.0" fill="#2563eb" stroke="white" stroke-width="1.5"><title>mcts/000235 | val_bpb=1.5832</title></circle>
<circle cx="981.29" cy="241.65" r="4.0" fill="#2563eb" stroke="white" stroke-width="1.5"><title>mcts/000253 | val_bpb=1.5808</title></circle>
<circle cx="1004.84" cy="294.55" r="4.0" fill="#2563eb" stroke="white" stroke-width="1.5"><title>mcts/000259 | val_bpb=1.4581</title></circle>
<circle cx="1028.39" cy="295.04" r="4.0" fill="#2563eb" stroke="white" stroke-width="1.5"><title>mcts/000262 | val_bpb=1.4570</title></circle>
<circle cx="1051.94" cy="295.54" r="4.0" fill="#2563eb" stroke="white" stroke-width="1.5"><title>mcts/000269 | val_bpb=1.4558</title></circle>
<circle cx="1075.48" cy="295.52" r="4.0" fill="#2563eb" stroke="white" stroke-width="1.5"><title>mcts/000272 | val_bpb=1.4559</title></circle>
<circle cx="1099.03" cy="294.55" r="4.0" fill="#2563eb" stroke="white" stroke-width="1.5"><title>mcts/000281 | val_bpb=1.4581</title></circle>
<circle cx="1122.58" cy="294.38" r="4.0" fill="#2563eb" stroke="white" stroke-width="1.5"><title>mcts/000295 | val_bpb=1.4585</title></circle>
<circle cx="1146.13" cy="295.66" r="4.0" fill="#2563eb" stroke="white" stroke-width="1.5"><title>mcts/000298 | val_bpb=1.4556</title></circle>
<circle cx="1169.68" cy="295.17" r="4.0" fill="#2563eb" stroke="white" stroke-width="1.5"><title>mcts/000304 | val_bpb=1.4567</title></circle>
<circle cx="1193.23" cy="295.73" r="4.0" fill="#2563eb" stroke="white" stroke-width="1.5"><title>mcts/000316 | val_bpb=1.4554</title></circle>
<circle cx="1216.77" cy="295.14" r="4.0" fill="#2563eb" stroke="white" stroke-width="1.5"><title>mcts/000321 | val_bpb=1.4567</title></circle>
<circle cx="1240.32" cy="295.47" r="4.0" fill="#2563eb" stroke="white" stroke-width="1.5"><title>mcts/000331 | val_bpb=1.4560</title></circle>
<circle cx="1263.87" cy="295.13" r="4.0" fill="#2563eb" stroke="white" stroke-width="1.5"><title>mcts/000338 | val_bpb=1.4568</title></circle>
<circle cx="1287.42" cy="329.33" r="4.0" fill="#2563eb" stroke="white" stroke-width="1.5"><title>mcts/000351 | val_bpb=1.3774</title></circle>
<circle cx="1310.97" cy="361.44" r="4.0" fill="#2563eb" stroke="white" stroke-width="1.5"><title>mcts/000360 | val_bpb=1.3030</title></circle>
<circle cx="1334.52" cy="393.98" r="4.0" fill="#2563eb" stroke="white" stroke-width="1.5"><title>mcts/000365 | val_bpb=1.2275</title></circle>
<circle cx="1358.06" cy="426.23" r="4.0" fill="#2563eb" stroke="white" stroke-width="1.5"><title>mcts/000370 | val_bpb=1.1527</title></circle>
<circle cx="1381.61" cy="456.62" r="4.0" fill="#2563eb" stroke="white" stroke-width="1.5"><title>mcts/000372 | val_bpb=1.0822</title></circle>
<circle cx="1405.16" cy="473.63" r="4.0" fill="#2563eb" stroke="white" stroke-width="1.5"><title>mcts/000376 | val_bpb=1.0428</title></circle>
<circle cx="1428.71" cy="484.22" r="4.0" fill="#2563eb" stroke="white" stroke-width="1.5"><title>mcts/000384 | val_bpb=1.0182</title></circle>
<circle cx="1452.26" cy="496.56" r="4.0" fill="#2563eb" stroke="white" stroke-width="1.5"><title>mcts/000387 | val_bpb=0.989572</title></circle>
<circle cx="1475.81" cy="508.90" r="4.0" fill="#2563eb" stroke="white" stroke-width="1.5"><title>mcts/000395 | val_bpb=0.960943</title></circle>
<circle cx="1499.35" cy="511.95" r="4.0" fill="#2563eb" stroke="white" stroke-width="1.5"><title>mcts/000400 | val_bpb=0.953872</title></circle>
<circle cx="1522.90" cy="515.19" r="4.0" fill="#2563eb" stroke="white" stroke-width="1.5"><title>mcts/000405 | val_bpb=0.946356</title></circle>
<circle cx="1546.45" cy="517.89" r="4.0" fill="#2563eb" stroke="white" stroke-width="1.5"><title>mcts/000408 | val_bpb=0.940083</title></circle>
<circle cx="1570.00" cy="520.00" r="6.0" fill="#0f766e" stroke="white" stroke-width="1.5"><title>mcts/000411 | val_bpb=0.935200</title></circle>
<text x="110.00" y="94.00" text-anchor="middle" font-family="monospace" font-size="12" fill="#1f2937">mcts/000002 1.9604</text>
<text x="1570.00" y="506.00" text-anchor="middle" font-family="monospace" font-size="12" font-weight="700" fill="#0f766e">mcts/000411 0.935200</text>
<text x="110" y="602" font-family="monospace" font-size="12" fill="#374151">X-axis: lineage step from root to mcts/000411</text>
<text transform="translate(22 299.00) rotate(-90)" font-family="monospace" font-size="12" fill="#374151">val_bpb</text>
</svg>
