<svg xmlns="http://www.w3.org/2000/svg" width="1144" height="620" viewBox="0 0 1144 620">
<rect width="100%" height="100%" fill="#f8fafc" />
<rect x="110" y="78" width="998" height="442" rx="10" fill="white" stroke="#d1d5db" stroke-width="1" />
<text x="110" y="28" font-family="monospace" font-size="20" fill="#111827">Best-Branch Lineage: score</text>
<text x="110" y="48" font-family="monospace" font-size="12" fill="#4b5563">Lower is better. Points: 42. Start 2,303,093 -&gt; Best 1,716,031. Improvement 587,062.</text>
<line x1="110" y1="78.00" x2="1108" y2="78.00" stroke="#e5e7eb" stroke-width="1" />
<line x1="110" y1="151.67" x2="1108" y2="151.67" stroke="#e5e7eb" stroke-width="1" />
<line x1="110" y1="225.33" x2="1108" y2="225.33" stroke="#e5e7eb" stroke-width="1" />
<line x1="110" y1="299.00" x2="1108" y2="299.00" stroke="#e5e7eb" stroke-width="1" />
<line x1="110" y1="372.67" x2="1108" y2="372.67" stroke="#e5e7eb" stroke-width="1" />
<line x1="110" y1="446.33" x2="1108" y2="446.33" stroke="#e5e7eb" stroke-width="1" />
<line x1="110" y1="520.00" x2="1108" y2="520.00" stroke="#e5e7eb" stroke-width="1" />
<line x1="110" y1="78" x2="110" y2="520" stroke="#111827" stroke-width="1.5" />
<line x1="110" y1="520" x2="1108" y2="520" stroke="#111827" stroke-width="1.5" />
<text x="98" y="82.00" text-anchor="end" font-family="monospace" font-size="12" fill="#374151">1,716,031</text>
<text x="98" y="155.67" text-anchor="end" font-family="monospace" font-size="12" fill="#374151">1,813,875</text>
<text x="98" y="229.33" text-anchor="end" font-family="monospace" font-size="12" fill="#374151">1,911,718</text>
<text x="98" y="303.00" text-anchor="end" font-family="monospace" font-size="12" fill="#374151">2,009,562</text>
<text x="98" y="376.67" text-anchor="end" font-family="monospace" font-size="12" fill="#374151">2,107,406</text>
<text x="98" y="450.33" text-anchor="end" font-family="monospace" font-size="12" fill="#374151">2,205,249</text>
<text x="98" y="524.00" text-anchor="end" font-family="monospace" font-size="12" fill="#374151">2,303,093</text>
<line x1="110.00" y1="520" x2="110.00" y2="526" stroke="#6b7280" stroke-width="1" />
<text x="110.00" y="542.00" text-anchor="middle" font-family="monospace" font-size="11" fill="#374151">1</text>
<line x1="231.71" y1="520" x2="231.71" y2="526" stroke="#6b7280" stroke-width="1" />
<text x="231.71" y="542.00" text-anchor="middle" font-family="monospace" font-size="11" fill="#374151">6</text>
<line x1="353.41" y1="520" x2="353.41" y2="526" stroke="#6b7280" stroke-width="1" />
<text x="353.41" y="542.00" text-anchor="middle" font-family="monospace" font-size="11" fill="#374151">11</text>
<line x1="475.12" y1="520" x2="475.12" y2="526" stroke="#6b7280" stroke-width="1" />
<text x="475.12" y="542.00" text-anchor="middle" font-family="monospace" font-size="11" fill="#374151">16</text>
<line x1="596.83" y1="520" x2="596.83" y2="526" stroke="#6b7280" stroke-width="1" />
<text x="596.83" y="542.00" text-anchor="middle" font-family="monospace" font-size="11" fill="#374151">21</text>
<line x1="718.54" y1="520" x2="718.54" y2="526" stroke="#6b7280" stroke-width="1" />
<text x="718.54" y="542.00" text-anchor="middle" font-family="monospace" font-size="11" fill="#374151">26</text>
<line x1="840.24" y1="520" x2="840.24" y2="526" stroke="#6b7280" stroke-width="1" />
<text x="840.24" y="542.00" text-anchor="middle" font-family="monospace" font-size="11" fill="#374151">31</text>
<line x1="961.95" y1="520" x2="961.95" y2="526" stroke="#6b7280" stroke-width="1" />
<text x="961.95" y="542.00" text-anchor="middle" font-family="monospace" font-size="11" fill="#374151">36</text>
<line x1="1083.66" y1="520" x2="1083.66" y2="526" stroke="#6b7280" stroke-width="1" />
<text x="1083.66" y="542.00" text-anchor="middle" font-family="monospace" font-size="11" fill="#374151">41</text>
<line x1="1108.00" y1="520" x2="1108.00" y2="526" stroke="#6b7280" stroke-width="1" />
<text x="1108.00" y="542.00" text-anchor="middle" font-family="monospace" font-size="11" fill="#374151">42</text>
<polyline fill="none" stroke="#2563eb" stroke-width="2.5" points="110.00,520.00 134.34,405.99 158.68,402.71 183.02,395.85 207.37,356.31 231.71,342.05 256.05,336.81 280.39,312.33 304.73,313.43 329.07,305.04 353.41,304.68 377.76,305.18 402.10,304.62 426.44,304.82 450.78,305.51 475.12,304.81 499.46,301.90 523.80,301.48 548.15,300.85 572.49,297.57 596.83,297.51 621.17,298.92 645.51,298.43 669.85,298.94 694.20,282.87 718.54,276.28 742.88,279.22 767.22,279.14 791.56,277.52 815.90,275.24 840.24,275.35 864.59,274.22 888.93,273.69 913.27,273.48 937.61,187.36 961.95,119.06 986.29,190.67 1010.63,188.58 1034.98,80.61 1059.32,79.62 1083.66,78.59 1108.00,78.00" />
<circle cx="110.00" cy="520.00" r="6.0" fill="#2563eb" stroke="white" stroke-width="1.5"><title>mcts/000002 | score=2,303,093</title></circle>
<circle cx="134.34" cy="405.99" r="4.0" fill="#2563eb" stroke="white" stroke-width="1.5"><title>mcts/000010 | score=2,151,671</title></circle>
<circle cx="158.68" cy="402.71" r="4.0" fill="#2563eb" stroke="white" stroke-width="1.5"><title>mcts/000013 | score=2,147,312</title></circle>
<circle cx="183.02" cy="395.85" r="4.0" fill="#2563eb" stroke="white" stroke-width="1.5"><title>mcts/000020 | score=2,138,196</title></circle>
<circle cx="207.37" cy="356.31" r="4.0" fill="#2563eb" stroke="white" stroke-width="1.5"><title>mcts/000024 | score=2,085,686</title></circle>
<circle cx="231.71" cy="342.05" r="4.0" fill="#2563eb" stroke="white" stroke-width="1.5"><title>mcts/000028 | score=2,066,742</title></circle>
<circle cx="256.05" cy="336.81" r="4.0" fill="#2563eb" stroke="white" stroke-width="1.5"><title>mcts/000032 | score=2,059,778</title></circle>
<circle cx="280.39" cy="312.33" r="4.0" fill="#2563eb" stroke="white" stroke-width="1.5"><title>mcts/000036 | score=2,027,266</title></circle>
<circle cx="304.73" cy="313.43" r="4.0" fill="#2563eb" stroke="white" stroke-width="1.5"><title>mcts/000043 | score=2,028,726</title></circle>
<circle cx="329.07" cy="305.04" r="4.0" fill="#2563eb" stroke="white" stroke-width="1.5"><title>mcts/000050 | score=2,017,578</title></circle>
<circle cx="353.41" cy="304.68" r="4.0" fill="#2563eb" stroke="white" stroke-width="1.5"><title>mcts/000051 | score=2,017,106</title></circle>
<circle cx="377.76" cy="305.18" r="4.0" fill="#2563eb" stroke="white" stroke-width="1.5"><title>mcts/000058 | score=2,017,777</title></circle>
<circle cx="402.10" cy="304.62" r="4.0" fill="#2563eb" stroke="white" stroke-width="1.5"><title>mcts/000070 | score=2,017,022</title></circle>
<circle cx="426.44" cy="304.82" r="4.0" fill="#2563eb" stroke="white" stroke-width="1.5"><title>mcts/000074 | score=2,017,286</title></circle>
<circle cx="450.78" cy="305.51" r="4.0" fill="#2563eb" stroke="white" stroke-width="1.5"><title>mcts/000076 | score=2,018,212</title></circle>
<circle cx="475.12" cy="304.81" r="4.0" fill="#2563eb" stroke="white" stroke-width="1.5"><title>mcts/000097 | score=2,017,276</title></circle>
<circle cx="499.46" cy="301.90" r="4.0" fill="#2563eb" stroke="white" stroke-width="1.5"><title>mcts/000103 | score=2,013,420</title></circle>
<circle cx="523.80" cy="301.48" r="4.0" fill="#2563eb" stroke="white" stroke-width="1.5"><title>mcts/000108 | score=2,012,861</title></circle>
<circle cx="548.15" cy="300.85" r="4.0" fill="#2563eb" stroke="white" stroke-width="1.5"><title>mcts/000112 | score=2,012,016</title></circle>
<circle cx="572.49" cy="297.57" r="4.0" fill="#2563eb" stroke="white" stroke-width="1.5"><title>mcts/000117 | score=2,007,666</title></circle>
<circle cx="596.83" cy="297.51" r="4.0" fill="#2563eb" stroke="white" stroke-width="1.5"><title>mcts/000121 | score=2,007,579</title></circle>
<circle cx="621.17" cy="298.92" r="4.0" fill="#2563eb" stroke="white" stroke-width="1.5"><title>mcts/000126 | score=2,009,450</title></circle>
<circle cx="645.51" cy="298.43" r="4.0" fill="#2563eb" stroke="white" stroke-width="1.5"><title>mcts/000133 | score=2,008,807</title></circle>
<circle cx="669.85" cy="298.94" r="4.0" fill="#2563eb" stroke="white" stroke-width="1.5"><title>mcts/000137 | score=2,009,489</title></circle>
<circle cx="694.20" cy="282.87" r="4.0" fill="#2563eb" stroke="white" stroke-width="1.5"><title>mcts/000156 | score=1,988,137</title></circle>
<circle cx="718.54" cy="276.28" r="4.0" fill="#2563eb" stroke="white" stroke-width="1.5"><title>mcts/000163 | score=1,979,387</title></circle>
<circle cx="742.88" cy="279.22" r="4.0" fill="#2563eb" stroke="white" stroke-width="1.5"><title>mcts/000168 | score=1,983,291</title></circle>
<circle cx="767.22" cy="279.14" r="4.0" fill="#2563eb" stroke="white" stroke-width="1.5"><title>mcts/000175 | score=1,983,190</title></circle>
<circle cx="791.56" cy="277.52" r="4.0" fill="#2563eb" stroke="white" stroke-width="1.5"><title>mcts/000177 | score=1,981,033</title></circle>
<circle cx="815.90" cy="275.24" r="4.0" fill="#2563eb" stroke="white" stroke-width="1.5"><title>mcts/000185 | score=1,978,002</title></circle>
<circle cx="840.24" cy="275.35" r="4.0" fill="#2563eb" stroke="white" stroke-width="1.5"><title>mcts/000188 | score=1,978,149</title></circle>
<circle cx="864.59" cy="274.22" r="4.0" fill="#2563eb" stroke="white" stroke-width="1.5"><title>mcts/000199 | score=1,976,651</title></circle>
<circle cx="888.93" cy="273.69" r="4.0" fill="#2563eb" stroke="white" stroke-width="1.5"><title>mcts/000203 | score=1,975,951</title></circle>
<circle cx="913.27" cy="273.48" r="4.0" fill="#2563eb" stroke="white" stroke-width="1.5"><title>mcts/000208 | score=1,975,667</title></circle>
<circle cx="937.61" cy="187.36" r="4.0" fill="#2563eb" stroke="white" stroke-width="1.5"><title>mcts/000222 | score=1,861,277</title></circle>
<circle cx="961.95" cy="119.06" r="4.0" fill="#2563eb" stroke="white" stroke-width="1.5"><title>mcts/000226 | score=1,770,569</title></circle>
<circle cx="986.29" cy="190.67" r="4.0" fill="#2563eb" stroke="white" stroke-width="1.5"><title>mcts/000235 | score=1,865,673</title></circle>
<circle cx="1010.63" cy="188.58" r="4.0" fill="#2563eb" stroke="white" stroke-width="1.5"><title>mcts/000253 | score=1,862,900</title></circle>
<circle cx="1034.98" cy="80.61" r="4.0" fill="#2563eb" stroke="white" stroke-width="1.5"><title>mcts/000259 | score=1,719,504</title></circle>
<circle cx="1059.32" cy="79.62" r="4.0" fill="#2563eb" stroke="white" stroke-width="1.5"><title>mcts/000262 | score=1,718,183</title></circle>
<circle cx="1083.66" cy="78.59" r="4.0" fill="#2563eb" stroke="white" stroke-width="1.5"><title>mcts/000269 | score=1,716,820</title></circle>
<circle cx="1108.00" cy="78.00" r="6.0" fill="#0f766e" stroke="white" stroke-width="1.5"><title>mcts/000274 | score=1,716,031</title></circle>
<text x="110.00" y="506.00" text-anchor="middle" font-family="monospace" font-size="12" fill="#1f2937">mcts/000002 2,303,093</text>
<text x="1108.00" y="94.00" text-anchor="middle" font-family="monospace" font-size="12" font-weight="700" fill="#0f766e">mcts/000274 1,716,031</text>
<text x="110" y="602" font-family="monospace" font-size="12" fill="#374151">X-axis: lineage step on the current best path</text>
<text transform="translate(22 299.00) rotate(-90)" font-family="monospace" font-size="12" fill="#374151">score</text>
</svg>
